<svg aria-hidden="true" style="width:0;height:0;position:absolute;overflow:hidden" xmlns="http://www.w3.org/2000/svg"><defs><symbol id="linkedin" viewBox="0 0 16 16"><g clip-path="url('#a')" fill="#F4F4FD"><path d="M15.996 16H16v-5.87c0-2.87-.618-5.082-3.974-5.082-1.614 0-2.696.886-3.138 1.725H8.84V5.317H5.66V16h3.314v-5.29c0-1.393.264-2.74 1.988-2.74 1.7 0 1.725 1.59 1.725 2.83V16h3.31ZM.264 5.318h3.317V16H.264V5.318ZM1.921 0C.861 0 0 .86 0 1.92s.86 1.94 1.921 1.94 1.922-.88 1.922-1.94A1.924 1.924 0 0 0 1.92 0Z"/></g><defs><clipPath id="a"><path fill="#fff" d="M0 0h16v16H0z"/></clipPath></defs></symbol><symbol id="user-name" viewBox="0 0 18 18"><g clip-path="url('#a')"><path d="M9 9a3 3 0 1 0 0-6 3 3 0 1 0 0 6Zm0 1.5c-2.003 0-6 1.005-6 3v.75c0 .412.337.75.75.75h10.5c.412 0 .75-.338.75-.75v-.75c0-1.995-3.998-3-6-3Z"/></g><defs><clipPath id="a"><path d="M0 0h18v18H0z"/></clipPath></defs></symbol><symbol id="user-phone" viewBox="0 0 18 24"><g clip-path="url('#a')"><path d="m14.726 13.865-1.838-.21a1.441 1.441 0 0 0-1.187.413l-1.331 1.331A10.888 10.888 0 0 1 5.6 10.63l1.34-1.339a1.44 1.44 0 0 0 .412-1.186l-.21-1.824A1.448 1.448 0 0 0 5.702 5H4.45c-.818 0-1.498.68-1.447 1.498.383 6.18 5.326 11.116 11.499 11.5.818.05 1.498-.63 1.498-1.448v-1.252a1.434 1.434 0 0 0-1.274-1.433Z"/></g><defs><clipPath id="a"><path d="M0 0h18v24H0z"/></clipPath></defs></symbol><symbol id="user-email" viewBox="0 0 18 24"><g clip-path="url('#a')"><path d="M15 6H3c-.825 0-1.492.675-1.492 1.5l-.008 9c0 .825.675 1.5 1.5 1.5h12c.825 0 1.5-.675 1.5-1.5v-9c0-.825-.675-1.5-1.5-1.5Zm-.3 3.188-5.302 3.314a.759.759 0 0 1-.796 0L3.3 9.188a.637.637 0 1 1 .675-1.08L9 11.25l5.025-3.143a.637.637 0 1 1 .675 1.08Z"/></g><defs><clipPath id="a"><path d="M0 0h18v24H0z"/></clipPath></defs></symbol><symbol id="about" viewBox="0 0 576 512"><path d="M256 0h64c17.7 0 32 14.3 32 32v64c0 17.7-14.3 32-32 32h-64c-17.7 0-32-14.3-32-32V32c0-17.7 14.3-32 32-32zM64 64h128v48c0 26.5 21.5 48 48 48h96c26.5 0 48-21.5 48-48V64h128c35.3 0 64 28.7 64 64v320c0 35.3-28.7 64-64 64H64c-35.3 0-64-28.7-64-64V128c0-35.3 28.7-64 64-64zm112 373.3c0 5.9 4.8 10.7 10.7 10.7h202.6c5.9 0 10.7-4.8 10.7-10.7 0-29.5-23.9-53.3-53.3-53.3H229.3c-29.5 0-53.3 23.9-53.3 53.3zM288 352a64 64 0 1 0 0-128 64 64 0 1 0 0 128z"/></symbol><symbol id="education" viewBox="0 0 640 512"><path d="M320 32c-8.1 0-16.1 1.4-23.7 4.1L15.8 137.4C6.3 140.9 0 149.9 0 160s6.3 19.1 15.8 22.6l57.9 20.9C57.3 229.3 48 259.8 48 291.9V320c0 28.4-10.8 57.7-22.3 80.8-6.5 13-13.9 25.8-22.5 37.6-3.2 4.3-4.1 9.9-2.3 15s6 8.9 11.2 10.2l64 16c4.2 1.1 8.7.3 12.4-2s6.3-6.1 7.1-10.4c8.6-42.8 4.3-81.2-2.1-108.7-3.2-14.2-7.5-28.7-13.5-42v-24.6c0-30.2 10.2-58.7 27.9-81.5 12.9-15.5 29.6-28 49.2-35.7l157-61.7c8.2-3.2 17.5.8 20.7 9s-.8 17.5-9 20.7l-157 61.7c-12.4 4.9-23.3 12.4-32.2 21.6l159.6 57.6c7.6 2.7 15.6 4.1 23.7 4.1s16.1-1.4 23.7-4.1l280.6-101c9.5-3.4 15.8-12.5 15.8-22.6s-6.3-19.1-15.8-22.6L343.7 36.1c-7.6-2.7-15.6-4.1-23.7-4.1zM128 408c0 35.3 86 72 192 72s192-36.7 192-72l-15.3-145.4L354.5 314c-11.1 4-22.8 6-34.5 6s-23.5-2-34.5-6l-142.2-51.4L128 408z"/></symbol><symbol id="skills" viewBox="0 0 512 512"><path d="M495.9 166.6c3.2 8.7.5 18.4-6.4 24.6l-43.3 39.4c1.1 8.3 1.7 16.8 1.7 25.4s-.6 17.1-1.7 25.4l43.3 39.4c6.9 6.2 9.6 15.9 6.4 24.6-4.4 11.9-9.7 23.3-15.8 34.3l-4.7 8.1c-6.6 11-14 21.4-22.1 31.2-5.9 7.2-15.7 9.6-24.5 6.8l-55.7-17.7c-13.4 10.3-28.2 18.9-44 25.4l-12.5 57.1c-2 9.1-9 16.3-18.2 17.8-13.8 2.3-28 3.5-42.5 3.5s-28.7-1.2-42.5-3.5c-9.2-1.5-16.2-8.7-18.2-17.8l-12.5-57.1c-15.8-6.5-30.6-15.1-44-25.4l-55.6 17.8c-8.8 2.8-18.6.3-24.5-6.8-8.1-9.8-15.5-20.2-22.1-31.2l-4.7-8.1c-6.1-11-11.4-22.4-15.8-34.3-3.2-8.7-.5-18.4 6.4-24.6l43.3-39.4c-1.1-8.4-1.7-16.9-1.7-25.5s.6-17.1 1.7-25.4l-43.3-39.4c-6.9-6.2-9.6-15.9-6.4-24.6 4.4-11.9 9.7-23.3 15.8-34.3l4.7-8.1c6.6-11 14-21.4 22.1-31.2 5.9-7.2 15.7-9.6 24.5-6.8l55.7 17.7c13.4-10.3 28.2-18.9 44-25.4l12.5-57.1c2-9.1 9-16.3 18.2-17.8C227.3 1.2 241.5 0 256 0s28.7 1.2 42.5 3.5c9.2 1.5 16.2 8.7 18.2 17.8l12.5 57.1c15.8 6.5 30.6 15.1 44 25.4l55.7-17.7c8.8-2.8 18.6-.3 24.5 6.8 8.1 9.8 15.5 20.2 22.1 31.2l4.7 8.1c6.1 11 11.4 22.4 15.8 34.3zM256 336a80 80 0 1 0 0-160 80 80 0 1 0 0 160z"/></symbol><symbol id="work-experience" viewBox="0 0 512 512"><path d="M184 48h144c4.4 0 8 3.6 8 8v40H176V56c0-4.4 3.6-8 8-8zm-56 8v40H64c-35.3 0-64 28.7-64 64v96h512v-96c0-35.3-28.7-64-64-64h-64V56c0-30.9-25.1-56-56-56H184c-30.9 0-56 25.1-56 56zm384 232H320v32c0 17.7-14.3 32-32 32h-64c-17.7 0-32-14.3-32-32v-32H0v128c0 35.3 28.7 64 64 64h384c35.3 0 64-28.7 64-64V288z"/></symbol><symbol id="projects" viewBox="0 0 64 64"><g data-name="Layer 1" class="color000000 svgShape"><rect width="22" height="8" x="18" y="3" rx="2" class="color000000 svgShape"/><path d="M48 20a13 13 0 0 0-13 13c.699 17.252 25.325 17.227 26 0a13.014 13.014 0 0 0-13-13Zm5.91 11.91-6 6a1.982 1.982 0 0 1-2.82 0l-3-3a1.994 1.994 0 0 1 2.82-2.82l1.59 1.58 4.59-4.58a1.994 1.994 0 0 1 2.82 2.82Z" class="color000000 svgShape"/><path d="M5 61h48a2.006 2.006 0 0 0 2-2V45.106C45.95 50.569 33.854 43.61 34 33c-.199-10.57 11.99-17.588 21-12.11V9a2.006 2.006 0 0 0-2-2H41v2a3.003 3.003 0 0 1-3 3H20a3.003 3.003 0 0 1-3-3V7H5a2.006 2.006 0 0 0-2 2v50a2.006 2.006 0 0 0 2 2Zm4-38a2.006 2.006 0 0 1 2-2h16a2.006 2.006 0 0 1 2 2v1a2.006 2.006 0 0 1-2 2H11a2.006 2.006 0 0 1-2-2Zm0 10a2.006 2.006 0 0 1 2-2h16a2.006 2.006 0 0 1 2 2v1a2.006 2.006 0 0 1-2 2H11a2.006 2.006 0 0 1-2-2Zm0 10a2.006 2.006 0 0 1 2-2h16a2.006 2.006 0 0 1 2 2v1a2.006 2.006 0 0 1-2 2H11a2.006 2.006 0 0 1-2-2Z" class="color000000 svgShape"/></g></symbol><symbol id="contacts" viewBox="0 0 512 512"><path d="M48 64C21.5 64 0 85.5 0 112c0 15.1 7.1 29.3 19.2 38.4l217.6 163.2c11.4 8.5 27 8.5 38.4 0l217.6-163.2c12.1-9.1 19.2-23.3 19.2-38.4 0-26.5-21.5-48-48-48H48zM0 176v208c0 35.3 28.7 64 64 64h384c35.3 0 64-28.7 64-64V176L294.4 339.2a63.9 63.9 0 0 1-76.8 0L0 176z"/></symbol><symbol id="certificate" viewBox="0 0 64 64"><path d="M54.373 38.209a6.633 6.633 0 1 1-6.633-6.633 6.64 6.64 0 0 1 6.633 6.633ZM43.615 46.9v6.94a1 1 0 0 0 1.485.875l1.914-1.06a1.5 1.5 0 0 1 1.453 0l1.913 1.06a1 1 0 0 0 1.484-.875V46.9a9.511 9.511 0 0 1-8.249 0ZM60.04 8.42v38.35a1 1 0 0 1-1 1h-4.18v-3.1a9.543 9.543 0 0 0 2.51-6.46 9.63 9.63 0 1 0-16.75 6.46v3.1H4.96a1 1 0 0 1-1-1V8.42a1 1 0 0 1 1-1h54.08a1 1 0 0 1 1 1Zm-38.69 7.07a1.498 1.498 0 0 0 1.5 1.5h18.3a1.5 1.5 0 1 0 0-3h-18.3a1.498 1.498 0 0 0-1.5 1.5Zm13.59 20.44a1.498 1.498 0 0 0-1.5-1.5H11.03a1.5 1.5 0 0 0 0 3h22.41a1.498 1.498 0 0 0 1.5-1.5Zm2.05-6.81a1.498 1.498 0 0 0-1.5-1.5H11.03a1.5 1.5 0 1 0 0 3h24.46a1.498 1.498 0 0 0 1.5-1.5Zm17.48-6.82a1.504 1.504 0 0 0-1.5-1.5H11.03a1.5 1.5 0 1 0 0 3h41.94a1.498 1.498 0 0 0 1.5-1.5Z" data-name="Certificate"/></symbol></defs></svg>