<svg aria-hidden="true" style="position: absolute; width: 0; height: 0; overflow: hidden;" version="1.1"
    xmlns="http://www.w3.org/2000/svg" xmlns:xlink="http://www.w3.org/1999/xlink">
    <defs>
        <!-- Linkedin icon -->
        <symbol id="linkedin" viewBox="0 0 112.196 112.196">
            <circle cx="56.098" cy="56.097" r="56.098" fill="#fff"></circle><path fill="#042c0e" d="M89.616 60.611v23.128H76.207V62.161c0-5.418-1.936-9.118-6.791-9.118-3.705 0-5.906 2.491-6.878 4.903-.353.862-.444 2.059-.444 3.268v22.524h-13.41s.18-36.546 0-40.329h13.411v5.715c-.027.045-.065.089-.089.132h.089v-.132c1.782-2.742 4.96-6.662 12.085-6.662 8.822 0 15.436 5.764 15.436 18.149zm-54.96-36.642c-4.587 0-7.588 3.011-7.588 6.967 0 3.872 2.914 6.97 7.412 6.97h.087c4.677 0 7.585-3.098 7.585-6.97-.089-3.956-2.908-6.967-7.496-6.967zm-6.791 59.77H41.27v-40.33H27.865v40.33z"></path>
        </symbol>
        <!-- User-name icon -->
        <symbol id="user-name" viewBox="0 0 18 18">
            <g clip-path="url(#a)"><path d="M9 9a3 3 0 1 0 0-6 3 3 0 1 0 0 6Zm0 1.5c-2.003 0-6 1.005-6 3v.75c0 .412.337.75.75.75h10.5c.412 0 .75-.338.75-.75v-.75c0-1.995-3.998-3-6-3Z"/></g><defs><clipPath id="a"><path d="M0 0h18v18H0z"/></clipPath></defs>
        </symbol>
        <!-- User-phone icon -->
        <symbol id="user-phone" viewBox="0 0 64 64">
            <defs><path id="a" d="M.06 64V.04H64V64z"></path></defs><g fill="none" fill-rule="evenodd"><g><mask id="b"><use xlink:href="#a"></use></mask><path  d="M41.107 35.619a1.066 1.066 0 0 0-.964.229c-1.556 1.329-3.705 2.745-4.632 2.891-6.217-3.039-9.689-8.872-9.82-9.978-.076-.622 1.349-2.806 2.988-4.582.207-.225.312-.531.283-.836-.417-4.794-5.418-7.146-5.629-7.242a1.063 1.063 0 0 0-.635-.085c-5.774.958-6.643 4.318-6.677 4.458-.048.196-.04.399.021.589 6.887 21.366 21.199 25.327 25.903 26.629.363.101.661.181.888.256a1.087 1.087 0 0 0 .788-.046c.144-.066 3.544-1.667 4.375-6.891.037-.227 0-.463-.105-.668-.074-.144-1.852-3.528-6.784-4.724" mask="url(#b)"></path><path fill="#fff" d="M47.996 41.011c-.831 5.224-4.231 6.825-4.375 6.891a1.087 1.087 0 0 1-.788.046c-.227-.075-.525-.155-.888-.256-4.704-1.302-19.016-5.263-25.903-26.629a1.081 1.081 0 0 1-.021-.589c.034-.14.903-3.5 6.677-4.458.214-.037.436-.009.635.085.211.096 5.212 2.448 5.629 7.242.029.305-.076.611-.283.836-1.639 1.776-3.064 3.96-2.988 4.582.131 1.106 3.603 6.939 9.82 9.978.927-.146 3.076-1.562 4.632-2.891.266-.227.62-.318.964-.229 4.932 1.196 6.71 4.58 6.784 4.724.105.205.142.441.105.668zM32 0C14.327 0 0 14.327 0 32c0 17.673 14.327 32 32 32 17.673 0 32-14.327 32-32C64 14.327 49.673 0 32 0z" mask="url(#b)"></path></g></g>
        </symbol>
        <!-- User-email icon -->
        <symbol id="user-email" viewBox="0 0 26 26">
            <path fill-rule="evenodd" d="M13 0A13 13 0 0 0 0 13a13 13 0 0 0 13 13 13 13 0 0 0 13-13A13 13 0 0 0 13 0zM6.893 9.008h12.224l-6.11 4.847-6.114-4.847zm-.877.582 6.685 5.297a.5.5 0 0 0 .62 0l6.665-5.293v7.398H6.016V9.59z" fill="#ffffff" class="color000000 svgShape"></path>
        </symbol>
        <!-- Telegram icon -->
        <symbol id="telegram" viewBox="0 0 24 24">
            <circle cx="12" cy="12" r="12" fill="#fff"></circle><path fill="#042c0e" d="m5.491 11.74 11.57-4.461c.537-.194 1.006.131.832.943l.001-.001-1.97 9.281c-.146.658-.537.818-1.084.508l-3-2.211-1.447 1.394c-.16.16-.295.295-.605.295l.213-3.053 5.56-5.023c.242-.213-.054-.333-.373-.121l-6.871 4.326-2.962-.924c-.643-.204-.657-.643.136-.953z"></path>
        </symbol>
        <!-- Github icon -->
        <symbol id="github" viewBox="0 0 16 16">
            <path fill="#ffffff" d="M7.999 0C3.582 0 0 3.596 0 8.032a8.031 8.031 0 0 0 5.472 7.621c.4.074.546-.174.546-.387 0-.191-.007-.696-.011-1.366-2.225.485-2.695-1.077-2.695-1.077-.363-.928-.888-1.175-.888-1.175-.727-.498.054-.488.054-.488.803.057 1.225.828 1.225.828.714 1.227 1.873.873 2.329.667.072-.519.279-.873.508-1.074-1.776-.203-3.644-.892-3.644-3.969 0-.877.312-1.594.824-2.156-.083-.203-.357-1.02.078-2.125 0 0 .672-.216 2.2.823a7.633 7.633 0 0 1 2.003-.27 7.65 7.65 0 0 1 2.003.271c1.527-1.039 2.198-.823 2.198-.823.436 1.106.162 1.922.08 2.125.513.562.822 1.279.822 2.156 0 3.085-1.87 3.764-3.652 3.963.287.248.543.738.543 1.487 0 1.074-.01 1.94-.01 2.203 0 .215.144.465.55.386A8.032 8.032 0 0 0 16 8.032C16 3.596 12.418 0 7.999 0z" class="color5c6bc0 svgShape"></path>
        </symbol>
        <!-- About icon -->
        <symbol id="about" viewBox="0 0 576 512">
            <path d="M256 0h64c17.7 0 32 14.3 32 32v64c0 17.7-14.3 32-32 32h-64c-17.7 0-32-14.3-32-32V32c0-17.7 14.3-32 32-32zM64 64h128v48c0 26.5 21.5 48 48 48h96c26.5 0 48-21.5 48-48V64h128c35.3 0 64 28.7 64 64v320c0 35.3-28.7 64-64 64H64c-35.3 0-64-28.7-64-64V128c0-35.3 28.7-64 64-64zm112 373.3c0 5.9 4.8 10.7 10.7 10.7h202.6c5.9 0 10.7-4.8 10.7-10.7 0-29.5-23.9-53.3-53.3-53.3H229.3c-29.5 0-53.3 23.9-53.3 53.3zM288 352a64 64 0 1 0 0-128 64 64 0 1 0 0 128z"/>
        </symbol>
        <!-- Education icon -->
        <symbol id="education" viewBox="0 0 640 512">
            <path d="M320 32c-8.1 0-16.1 1.4-23.7 4.1L15.8 137.4C6.3 140.9 0 149.9 0 160s6.3 19.1 15.8 22.6l57.9 20.9C57.3 229.3 48 259.8 48 291.9V320c0 28.4-10.8 57.7-22.3 80.8-6.5 13-13.9 25.8-22.5 37.6-3.2 4.3-4.1 9.9-2.3 15s6 8.9 11.2 10.2l64 16c4.2 1.1 8.7.3 12.4-2s6.3-6.1 7.1-10.4c8.6-42.8 4.3-81.2-2.1-108.7-3.2-14.2-7.5-28.7-13.5-42v-24.6c0-30.2 10.2-58.7 27.9-81.5 12.9-15.5 29.6-28 49.2-35.7l157-61.7c8.2-3.2 17.5.8 20.7 9s-.8 17.5-9 20.7l-157 61.7c-12.4 4.9-23.3 12.4-32.2 21.6l159.6 57.6c7.6 2.7 15.6 4.1 23.7 4.1s16.1-1.4 23.7-4.1l280.6-101c9.5-3.4 15.8-12.5 15.8-22.6s-6.3-19.1-15.8-22.6L343.7 36.1c-7.6-2.7-15.6-4.1-23.7-4.1zM128 408c0 35.3 86 72 192 72s192-36.7 192-72l-15.3-145.4L354.5 314c-11.1 4-22.8 6-34.5 6s-23.5-2-34.5-6l-142.2-51.4L128 408z"/>
        </symbol>
        <!-- Skills icon -->
        <symbol id="skills" viewBox="0 0 512 512">
            <path d="M495.9 166.6c3.2 8.7.5 18.4-6.4 24.6l-43.3 39.4c1.1 8.3 1.7 16.8 1.7 25.4s-.6 17.1-1.7 25.4l43.3 39.4c6.9 6.2 9.6 15.9 6.4 24.6-4.4 11.9-9.7 23.3-15.8 34.3l-4.7 8.1c-6.6 11-14 21.4-22.1 31.2-5.9 7.2-15.7 9.6-24.5 6.8l-55.7-17.7c-13.4 10.3-28.2 18.9-44 25.4l-12.5 57.1c-2 9.1-9 16.3-18.2 17.8-13.8 2.3-28 3.5-42.5 3.5s-28.7-1.2-42.5-3.5c-9.2-1.5-16.2-8.7-18.2-17.8l-12.5-57.1c-15.8-6.5-30.6-15.1-44-25.4l-55.6 17.8c-8.8 2.8-18.6.3-24.5-6.8-8.1-9.8-15.5-20.2-22.1-31.2l-4.7-8.1c-6.1-11-11.4-22.4-15.8-34.3-3.2-8.7-.5-18.4 6.4-24.6l43.3-39.4c-1.1-8.4-1.7-16.9-1.7-25.5s.6-17.1 1.7-25.4l-43.3-39.4c-6.9-6.2-9.6-15.9-6.4-24.6 4.4-11.9 9.7-23.3 15.8-34.3l4.7-8.1c6.6-11 14-21.4 22.1-31.2 5.9-7.2 15.7-9.6 24.5-6.8l55.7 17.7c13.4-10.3 28.2-18.9 44-25.4l12.5-57.1c2-9.1 9-16.3 18.2-17.8C227.3 1.2 241.5 0 256 0s28.7 1.2 42.5 3.5c9.2 1.5 16.2 8.7 18.2 17.8l12.5 57.1c15.8 6.5 30.6 15.1 44 25.4l55.7-17.7c8.8-2.8 18.6-.3 24.5 6.8 8.1 9.8 15.5 20.2 22.1 31.2l4.7 8.1c6.1 11 11.4 22.4 15.8 34.3zM256 336a80 80 0 1 0 0-160 80 80 0 1 0 0 160z"/>
        </symbol>
        <!-- Work experience icon -->
        <symbol id="work-experience" viewBox="0 0 512 512">
            <path d="M184 48h144c4.4 0 8 3.6 8 8v40H176V56c0-4.4 3.6-8 8-8zm-56 8v40H64c-35.3 0-64 28.7-64 64v96h512v-96c0-35.3-28.7-64-64-64h-64V56c0-30.9-25.1-56-56-56H184c-30.9 0-56 25.1-56 56zm384 232H320v32c0 17.7-14.3 32-32 32h-64c-17.7 0-32-14.3-32-32v-32H0v128c0 35.3 28.7 64 64 64h384c35.3 0 64-28.7 64-64V288z"/>
        </symbol>
        <!-- Projects icon -->
        <symbol id="projects" viewBox="0 0 64 64">
            <g data-name="Layer 1" class="color000000 svgShape">
                <rect width="22" height="8" x="18" y="3" rx="2" class="color000000 svgShape"/>
                <path d="M48 20a13 13 0 0 0-13 13c.699 17.252 25.325 17.227 26 0a13.014 13.014 0 0 0-13-13Zm5.91 11.91-6 6a1.982 1.982 0 0 1-2.82 0l-3-3a1.994 1.994 0 0 1 2.82-2.82l1.59 1.58 4.59-4.58a1.994 1.994 0 0 1 2.82 2.82Z" class="color000000 svgShape"/>
                <path d="M5 61h48a2.006 2.006 0 0 0 2-2V45.106C45.95 50.569 33.854 43.61 34 33c-.199-10.57 11.99-17.588 21-12.11V9a2.006 2.006 0 0 0-2-2H41v2a3.003 3.003 0 0 1-3 3H20a3.003 3.003 0 0 1-3-3V7H5a2.006 2.006 0 0 0-2 2v50a2.006 2.006 0 0 0 2 2Zm4-38a2.006 2.006 0 0 1 2-2h16a2.006 2.006 0 0 1 2 2v1a2.006 2.006 0 0 1-2 2H11a2.006 2.006 0 0 1-2-2Zm0 10a2.006 2.006 0 0 1 2-2h16a2.006 2.006 0 0 1 2 2v1a2.006 2.006 0 0 1-2 2H11a2.006 2.006 0 0 1-2-2Zm0 10a2.006 2.006 0 0 1 2-2h16a2.006 2.006 0 0 1 2 2v1a2.006 2.006 0 0 1-2 2H11a2.006 2.006 0 0 1-2-2Z" class="color000000 svgShape"/>
            </g>
        </symbol>
        <!-- Contacts icon -->
        <symbol id="contacts" viewBox="0 0 512 512">
            <path d="M48 64C21.5 64 0 85.5 0 112c0 15.1 7.1 29.3 19.2 38.4l217.6 163.2c11.4 8.5 27 8.5 38.4 0l217.6-163.2c12.1-9.1 19.2-23.3 19.2-38.4 0-26.5-21.5-48-48-48H48zM0 176v208c0 35.3 28.7 64 64 64h384c35.3 0 64-28.7 64-64V176L294.4 339.2a63.9 63.9 0 0 1-76.8 0L0 176z"/>
        </symbol>
        <!--Certificate icon-->
        <symbol id="certificate" viewBox="0 0 64 64">
            <path d="M54.373 38.209a6.633 6.633 0 1 1-6.633-6.633 6.64 6.64 0 0 1 6.633 6.633ZM43.615 46.9v6.94a1 1 0 0 0 1.485.875l1.914-1.06a1.5 1.5 0 0 1 1.453 0l1.913 1.06a1 1 0 0 0 1.484-.875V46.9a9.511 9.511 0 0 1-8.249 0ZM60.04 8.42v38.35a1 1 0 0 1-1 1h-4.18v-3.1a9.543 9.543 0 0 0 2.51-6.46 9.63 9.63 0 1 0-16.75 6.46v3.1H4.96a1 1 0 0 1-1-1V8.42a1 1 0 0 1 1-1h54.08a1 1 0 0 1 1 1Zm-38.69 7.07a1.498 1.498 0 0 0 1.5 1.5h18.3a1.5 1.5 0 1 0 0-3h-18.3a1.498 1.498 0 0 0-1.5 1.5Zm13.59 20.44a1.498 1.498 0 0 0-1.5-1.5H11.03a1.5 1.5 0 0 0 0 3h22.41a1.498 1.498 0 0 0 1.5-1.5Zm2.05-6.81a1.498 1.498 0 0 0-1.5-1.5H11.03a1.5 1.5 0 1 0 0 3h24.46a1.498 1.498 0 0 0 1.5-1.5Zm17.48-6.82a1.504 1.504 0 0 0-1.5-1.5H11.03a1.5 1.5 0 1 0 0 3h41.94a1.498 1.498 0 0 0 1.5-1.5Z" data-name="Certificate"></path>
        </symbol>
        <!--Bookmark-checked icon-->
        <symbol id="bookmark-checked" viewBox="0 0 2010 2010">
            <path fill="#000000" d="M1414.87,1392.66c-15.62,0-31.24-4.11-45.1-12.32l-148.09-84.24c-21.6-12.29-29.15-39.76-16.87-61.36,12.29-21.6,39.76-29.15,61.37-16.87l147.21,83.73V562.51c0-42.76-34.79-77.56-77.56-77.56h-443.26c-42.76,0-77.56,34.79-77.56,77.56v78.59c0,24.85-20.15,45-45,45s-45-20.15-45-45v-78.59c0-92.39,75.17-167.56,167.56-167.56h443.26c92.39,0,167.56,75.17,167.56,167.56v741.64c0,31.86-17.23,61.39-44.96,77.07-13.5,7.63-28.54,11.44-43.56,11.44Z" class="color303030 svgShape"></path><path fill="#fb6d3a" d="M595.2,1615.05c-14.99,0-30-3.89-43.76-11.7-28.07-15.94-44.83-44.72-44.83-76.99V784.38c0-92.39,75.17-167.56,167.56-167.56h443.26c92.39,0,167.56,75.17,167.56,167.56v741.64c0,31.86-17.23,61.39-44.96,77.07-27.74,15.65-61.92,15.2-89.22-1.22-.1-.06-.21-.12-.3-.19l-249.41-152.79c-.47-.29-1.05-.3-1.53,0l-259.16,153.54c-14.06,8.4-29.61,12.61-45.19,12.61Z" class="colorffac80 svgShape"></path><path fill="#000000" d="M863.77,1212.1c-10.05,0-20.14-3.35-28.46-10.16l-111.47-91.07c-19.24-15.72-22.1-44.07-6.38-63.31,15.73-19.25,44.08-22.11,63.32-6.38l79.97,65.32,152.45-152.38c17.57-17.57,46.06-17.56,63.64,0,17.57,17.58,17.56,46.07-.01,63.64l-181.22,181.15c-8.74,8.74-20.26,13.17-31.82,13.17Z" class="color303030 svgShape"></path>
        </symbol>
    </defs>
</svg>